<svg xmlns="http://www.w3.org/2000/svg" viewBox="0 0 128 128" fill="none">
  <g fill="#0A0A0A">
    <circle cx="16" cy="16" r="2.5" />
    <circle cx="32" cy="16" r="2.5" />
    <circle cx="48" cy="16" r="2.5" />
    <circle cx="64" cy="16" r="2.5" />
    <circle cx="80" cy="16" r="2.5" />
    <circle cx="16" cy="32" r="4" />
    <circle cx="32" cy="32" r="4" />
    <circle cx="48" cy="32" r="4" />
    <circle cx="64" cy="32" r="4" />
    <circle cx="80" cy="32" r="3" />
    <circle cx="96" cy="32" r="3" />
    <circle cx="16" cy="48" r="7" />
    <circle cx="32" cy="48" r="7" />
    <circle cx="48" cy="48" r="7" />
    <circle cx="64" cy="48" r="7" />
    <circle cx="80" cy="48" r="4" />
    <circle cx="96" cy="48" r="2.5" />
    <circle cx="112" cy="48" r="2.5" />
    <circle cx="16" cy="64" r="2.5" />
    <circle cx="32" cy="64" r="2.5" />
    <circle cx="48" cy="64" r="2.5" />
    <circle cx="64" cy="64" r="2.5" />
    <circle cx="80" cy="64" r="7" />
    <circle cx="96" cy="64" r="4" />
    <circle cx="112" cy="64" r="2.5" />
    <circle cx="16" cy="80" r="7" />
    <circle cx="32" cy="80" r="7" />
    <circle cx="48" cy="80" r="4" />
    <circle cx="64" cy="80" r="2.5" />
    <circle cx="80" cy="80" r="7" />
    <circle cx="96" cy="80" r="4" />
    <circle cx="112" cy="80" r="2.5" />
    <circle cx="16" cy="96" r="2.5" />
    <circle cx="32" cy="96" r="2.5" />
    <circle cx="48" cy="96" r="7" />
    <circle cx="64" cy="96" r="2.5" />
    <circle cx="80" cy="96" r="7" />
    <circle cx="96" cy="96" r="4" />
    <circle cx="112" cy="96" r="2.5" />
    <circle cx="16" cy="112" r="7" />
    <circle cx="32" cy="112" r="2.5" />
    <circle cx="48" cy="112" r="7" />
    <circle cx="64" cy="112" r="2.5" />
    <circle cx="80" cy="112" r="7" />
    <circle cx="96" cy="112" r="4" />
    <circle cx="112" cy="112" r="2.5" />
  </g>
</svg>
